<svg xmlns="http://www.w3.org/2000/svg" version="1.1" xmlns:xlink="http://www.w3.org/1999/xlink" xmlns:svgjs="http://svgjs.com/svgjs" width="1440" height="560" preserveAspectRatio="none" viewBox="0 0 1440 560"><g mask="url(&quot;#SvgjsMask4640&quot;)" fill="none"><rect width="1440" height="560" x="0" y="0" fill="rgba(244, 250, 255, 1)"></rect><use xlink:href="#SvgjsG4650" transform="translate(0, 0)" fill="rgba(198, 215, 233, 1)"></use><use xlink:href="#SvgjsG4650" transform="translate(832, 0)" fill="rgba(198, 215, 233, 1)"></use></g><defs><mask id="SvgjsMask4640"><rect width="1440" height="560" fill="#ffffff"></rect></mask><g id="SvgjsG4648"><path d="M12.59 13.92C9.33 16.65 4.46 16.23 1.72 12.96-1.01 9.71-0.59 4.83 2.67 2.1S10.81-0.21 13.54 3.05c2.74 3.26 2.31 8.14-0.95 10.87z m-1.23-1.46c2.45-2.06 2.78-5.73 0.72-8.19-2.06-2.45-5.73-2.77-8.18-0.71-2.45 2.06-2.77 5.73-0.72 8.18 2.06 2.46 5.73 2.78 8.18 0.72z"></path><path d="M8.32 8.76a0.57 0.57 0 0 1-0.45 0.33 0.58 0.58 0 0 1-0.46-0.14L4.52 5.52a0.58 0.58 0 0 1 0.89-0.75l2.24 2.66 1.38-2.98a0.58 0.58 0 0 1 0.77-0.29c0.29 0.13 0.42 0.48 0.28 0.77l-1.76 3.83z"></path></g><g id="SvgjsG4647"><path d="M4.21 12.01L2.29 13.62 1.44 12.6l1.92-1.61 0.85 1.02zM2.47 8.17L-0.03 7.95l0.12-1.32 2.5 0.22-0.12 1.32z m4.38 5.22l1.32 0.12-0.22 2.49-1.31-0.11 0.21-2.5z m-1.88-10.02l-1.02 0.86L2.34 2.31l1.02-0.86 1.61 1.92z m6.02 9.25l1.02-0.86 1.61 1.93-1.01 0.85-1.62-1.92zM9.13 2.58l-1.34-0.09 0.24-2.52 1.31 0.12-0.21 2.5z m4.36 5.21l2.51 0.24-0.11 1.31-2.5-0.22 0.1-1.33z m0.18-5.45l0.86 1.01-1.92 1.62L11.75 3.95l1.92-1.61z"></path><path d="M4.7 10.75a4.18 4.18 0 1 0 6.41-5.38 4.18 4.18 0 1 0-6.41 5.38"></path></g><g id="SvgjsG4645"><path d="M10.57 11.92S8.78 11.42 6.73 13.14C4.85 14.71 4.34 16.08 4.34 16.08L-2.03 8.5s0.52-1.36 2.39-2.96C2.4 3.81 4.21 4.34 4.21 4.34L10.57 11.92z m0.83-0.7s-0.18-1.85 1.87-3.57c1.88-1.58 3.31-1.85 3.31-1.85L10.22-1.78s-1.43 0.27-3.32 1.84c-2.06 1.71-1.86 3.58-1.86 3.58l6.36 7.58z"></path><path d="M12.98 13.92S10.25 13.17 8.2 14.89c-1.88 1.58-2.4 2.94-2.39 2.94l-0.76-0.91s0.52-1.36 2.38-2.95c2.04-1.73 4.79-0.96 4.79-0.96L12.98 13.92z m0 0s-0.26-2.82 1.79-4.54c1.88-1.58 3.31-1.85 3.31-1.85l-0.76-0.91s-1.43 0.27-3.32 1.84c-2.06 1.7-1.78 4.55-1.78 4.55l0.76 0.91z"></path></g><g id="SvgjsG4641"><path d="M4.9 4.22c-0.38 0.32-0.95 0.27-1.27-0.11-0.32-0.39-0.27-0.96 0.1-1.28a0.9 0.9 0 0 1 1.28 0.11 0.91 0.91 0 0 1-0.11 1.28z m10.71 1.37l-2.31-1.99c-0.22-0.18-0.55-0.19-0.77 0-0.14 0.11-0.21 0.27-0.22 0.44L11.95 7.07c-0.01 0.05-0.01 0.1-0.01 0.15a0.65 0.65 0 0 0 0.68 0.61c0.07 0 0.13-0.02 0.2-0.04l0.54-0.22C13.93 9.08 13.67 10.81 12.63 12.09l-6.34-7.56a2.2 2.2 0 0 0-0.28-2.42C5.22 1.17 3.83 1.05 2.9 1.84c-0.93 0.78-1.06 2.17-0.27 3.1 0.58 0.7 1.52 0.93 2.34 0.69l6.36 7.58c-1.46 0.83-3.25 0.82-4.67-0.02l0.32-0.5c0.03-0.06 0.06-0.12 0.07-0.19 0.08-0.35-0.13-0.7-0.48-0.77a0.54 0.54 0 0 0-0.15-0.02L3.38 11.54A0.6 0.6 0 0 0 2.91 11.68a0.61 0.61 0 0 0-0.14 0.76L4.33 15.06c0.02 0.04 0.05 0.09 0.09 0.12a0.65 0.65 0 0 0 0.91 0.08c0.05-0.04 0.1-0.09 0.12-0.14l0.3-0.47C8.01 16.05 11.01 15.92 13.15 14.12s2.8-4.74 1.81-7.21l0.51-0.2c0.06-0.02 0.11-0.06 0.17-0.1a0.65 0.65 0 0 0 0.08-0.91 0.67 0.67 0 0 0-0.11-0.11z"></path></g><g id="SvgjsG4646"><path d="M7.19 1.73L2 6.09C-1.26 8.82 0.76 10.76 0.76 10.76l11.24-9.43S10.45-1 7.19 1.73zM8.92 14.34l5.19-4.36c3.26-2.73 1.23-4.67 1.23-4.67L4.1 14.74s1.56 2.33 4.82-0.4z m5.07-9.65a1.26 1.26 0 0 0 0.15-1.78c-0.44-0.53-1.24-0.6-1.77-0.15L2.07 11.41C1.53 11.86 1.46 12.65 1.91 13.18a1.26 1.26 0 0 0 1.77 0.16l10.31-8.65z" fill-rule="evenodd"></path></g><g id="SvgjsG4643"><path d="M15.45 5.53l-7.72 1.28L7.29 6.29c-0.49-0.59-1.35-0.31-1.35-0.3-0.58 0.15-0.91-0.32-0.91-0.32-0.43-0.51-0.11-1.06 0.09-1.23 0.34-0.29 0.84-0.38 1.24 0.02 0.63 0.64 1.26-0.19 0.8-0.73C6.73 3.21 5.49 2.69 4.41 3.6 3.24 4.58 3.86 6 4.17 6.36c0.23 0.27 0.48 0.49 0.89 0.63 0.69 0.25 1.33-0.15 1.6 0.17l0.27 0.32L4.28 14.92C4.02 15.66 4.47 16.38 4.91 16.68c0.43 0.29 1.19 0.42 1.88-0.16l9.75-8.18c0.77-0.64 0.75-1.38 0.54-1.85-0.22-0.48-0.73-1.09-1.63-0.96z m0.38 1.95L6.09 15.66c-0.31 0.28-0.88 0-0.73-0.46L7.95 7.96l7.54-1.29c0.5-0.04 0.68 0.52 0.34 0.81z"></path></g><g id="SvgjsG4644"><path d="M6.9 14.39L4.8 11.9c-1.82-2.17-1.47-5.61 0.81-7.53 2.31-1.95 5.7-1.71 7.56 0.5l2.1 2.5 1.03-0.87L14.21 4.01C11.87 1.2 7.62 0.91 4.74 3.32 1.88 5.72 1.45 10.01 3.76 12.77l2.1 2.49 1.04-0.87z"></path><path d="M10.36 14.76l-1.36 1.15L5.72 12l1.36-1.15c2.23 1.23 3.29 3.92 3.29 3.91m1.35-7.8L13.08 5.82 16.37 9.73l-1.37 1.15c-2.23-1.23-3.29-3.92-3.28-3.92"></path></g><g id="SvgjsG4642"><path d="M12.82 8.73c-0.25 2.9-2.81 5.04-5.7 4.79-2.9-0.25-5.04-2.81-4.79-5.71 0.12-1.38 0.61-3.35 2.6-5.01 3.64-3.05 3.96-4.96 3.96-4.96 3.67 4.37 4.18 8 3.93 10.89z"></path><path d="M6.67 13.85L5.26 13.21l2.12-7.48z"></path><path d="M7.38 5.73l1.62 0.14-1.01 11.55-1.62-0.14z"></path></g><g id="SvgjsG4649"><path d="M7.15 8.78l1.08 0.31 0.9-0.76-0.18-1.07-1.08-0.39-0.9 0.76 0.18 1.15zM12.35 14.22L10.99 12.6l-0.48 1.27-0.68 0.12L9.35 13.42l0.7-1.88L9.16 10.47l-0.45 1.44-0.94-1.12-0.48 1.31 1.28 1.53-0.25 0.74-0.66 0.08L6.8 13.43 6.05 15.41 5.24 15.66 4.69 15.01l0.81-2.05-1.32 0.31-0.5-0.59 0.29-0.73 1.98-0.33 0.48-1.31-0.04 0-1.4 0.25 0.44-1.33-1.36 0.23L3.39 11.36l-0.7 0.17-0.5-0.59 0.48-1.26L0.58 10.11l-0.54-0.65 0.31-0.75 2.1-0.37-0.87-1.04 0.18-0.64 0.78-0.14 1.3 1.56 1.41-0.25-0.93-1.1 1.45-0.3-0.9-1.07L2.89 5.73l-0.47-0.57 0.23-0.65 1.34-0.25L2.63 2.64 2.86 1.87l0.81-0.1 1.36 1.61 0.5-1.3 0.73-0.09 0.43 0.51L5.96 4.45l0.89 1.07 0.46-1.38 0.98 1.16 0.53-1.35-1.4-1.67 0.29-0.61 0.67-0.2 0.9 1.07 0.79-2.01 0.77-0.12 0.51 0.6-0.74 2 1.3-0.24 0.49 0.57L12.15 3.98l-2.04 0.34-0.44 1.39 1.39-0.19-0.49 1.33 1.4-0.31L12.69 4.63l0.7-0.05 0.46 0.55L13.4 6.33l2.05-0.34 0.53 0.64-0.36 0.75-1.98 0.36 0.85 1.01-0.26 0.67-0.69 0.13L12.25 8.01l-1.46 0.27 0.89 1.07L10.24 9.56l0.9 1.07L13.12 10.26l0.5 0.61-0.27 0.62-1.32 0.24 1.36 1.62L13.15 14.12l-0.8 0.1z"></path></g><g id="SvgjsG4650"><use xlink:href="#SvgjsG4641" transform="translate(0, 0) scale(1.3)" fill="rgba(198, 215, 233, 1)"></use><use xlink:href="#SvgjsG4641" transform="translate(0, 83.2) scale(1.3)" fill="rgba(198, 215, 233, 1)"></use><use xlink:href="#SvgjsG4642" transform="translate(0, 166.4) scale(1.3)" fill="rgba(198, 215, 233, 1)"></use><use xlink:href="#SvgjsG4643" transform="translate(0, 249.60000000000002) scale(1.3)" fill="rgba(198, 215, 233, 1)"></use><use xlink:href="#SvgjsG4644" transform="translate(0, 332.8) scale(1.3)" fill="rgba(198, 215, 233, 1)"></use><use xlink:href="#SvgjsG4641" transform="translate(0, 416) scale(1.3)" fill="rgba(198, 215, 233, 1)"></use><use xlink:href="#SvgjsG4643" transform="translate(0, 499.20000000000005) scale(1.3)" fill="rgba(198, 215, 233, 1)"></use><use xlink:href="#SvgjsG4645" transform="translate(83.2, 0) scale(1.3)" fill="rgba(198, 215, 233, 1)"></use><use xlink:href="#SvgjsG4646" transform="translate(83.2, 83.2) scale(1.3)" fill="rgba(198, 215, 233, 1)"></use><use xlink:href="#SvgjsG4646" transform="translate(83.2, 166.4) scale(1.3)" fill="rgba(198, 215, 233, 1)"></use><use xlink:href="#SvgjsG4647" transform="translate(83.2, 249.60000000000002) scale(1.3)" fill="rgba(198, 215, 233, 1)"></use><use xlink:href="#SvgjsG4648" transform="translate(83.2, 332.8) scale(1.3)" fill="rgba(198, 215, 233, 1)"></use><use xlink:href="#SvgjsG4641" transform="translate(83.2, 416) scale(1.3)" fill="rgba(198, 215, 233, 1)"></use><use xlink:href="#SvgjsG4649" transform="translate(83.2, 499.20000000000005) scale(1.3)" fill="rgba(198, 215, 233, 1)"></use><use xlink:href="#SvgjsG4645" transform="translate(166.4, 0) scale(1.3)" fill="rgba(198, 215, 233, 1)"></use><use xlink:href="#SvgjsG4641" transform="translate(166.4, 83.2) scale(1.3)" fill="rgba(198, 215, 233, 1)"></use><use xlink:href="#SvgjsG4644" transform="translate(166.4, 166.4) scale(1.3)" fill="rgba(198, 215, 233, 1)"></use><use xlink:href="#SvgjsG4646" transform="translate(166.4, 249.60000000000002) scale(1.3)" fill="rgba(198, 215, 233, 1)"></use><use xlink:href="#SvgjsG4641" transform="translate(166.4, 332.8) scale(1.3)" fill="rgba(198, 215, 233, 1)"></use><use xlink:href="#SvgjsG4645" transform="translate(166.4, 416) scale(1.3)" fill="rgba(198, 215, 233, 1)"></use><use xlink:href="#SvgjsG4648" transform="translate(166.4, 499.20000000000005) scale(1.3)" fill="rgba(198, 215, 233, 1)"></use><use xlink:href="#SvgjsG4649" transform="translate(249.60000000000002, 0) scale(1.3)" fill="rgba(198, 215, 233, 1)"></use><use xlink:href="#SvgjsG4644" transform="translate(249.60000000000002, 83.2) scale(1.3)" fill="rgba(198, 215, 233, 1)"></use><use xlink:href="#SvgjsG4643" transform="translate(249.60000000000002, 166.4) scale(1.3)" fill="rgba(198, 215, 233, 1)"></use><use xlink:href="#SvgjsG4646" transform="translate(249.60000000000002, 249.60000000000002) scale(1.3)" fill="rgba(198, 215, 233, 1)"></use><use xlink:href="#SvgjsG4644" transform="translate(249.60000000000002, 332.8) scale(1.3)" fill="rgba(198, 215, 233, 1)"></use><use xlink:href="#SvgjsG4643" transform="translate(249.60000000000002, 416) scale(1.3)" fill="rgba(198, 215, 233, 1)"></use><use xlink:href="#SvgjsG4648" transform="translate(249.60000000000002, 499.20000000000005) scale(1.3)" fill="rgba(198, 215, 233, 1)"></use><use xlink:href="#SvgjsG4644" transform="translate(332.8, 0) scale(1.3)" fill="rgba(198, 215, 233, 1)"></use><use xlink:href="#SvgjsG4647" transform="translate(332.8, 83.2) scale(1.3)" fill="rgba(198, 215, 233, 1)"></use><use xlink:href="#SvgjsG4643" transform="translate(332.8, 166.4) scale(1.3)" fill="rgba(198, 215, 233, 1)"></use><use xlink:href="#SvgjsG4649" transform="translate(332.8, 249.60000000000002) scale(1.3)" fill="rgba(198, 215, 233, 1)"></use><use xlink:href="#SvgjsG4643" transform="translate(332.8, 332.8) scale(1.3)" fill="rgba(198, 215, 233, 1)"></use><use xlink:href="#SvgjsG4647" transform="translate(332.8, 416) scale(1.3)" fill="rgba(198, 215, 233, 1)"></use><use xlink:href="#SvgjsG4644" transform="translate(332.8, 499.20000000000005) scale(1.3)" fill="rgba(198, 215, 233, 1)"></use><use xlink:href="#SvgjsG4646" transform="translate(416, 0) scale(1.3)" fill="rgba(198, 215, 233, 1)"></use><use xlink:href="#SvgjsG4643" transform="translate(416, 83.2) scale(1.3)" fill="rgba(198, 215, 233, 1)"></use><use xlink:href="#SvgjsG4642" transform="translate(416, 166.4) scale(1.3)" fill="rgba(198, 215, 233, 1)"></use><use xlink:href="#SvgjsG4642" transform="translate(416, 249.60000000000002) scale(1.3)" fill="rgba(198, 215, 233, 1)"></use><use xlink:href="#SvgjsG4647" transform="translate(416, 332.8) scale(1.3)" fill="rgba(198, 215, 233, 1)"></use><use xlink:href="#SvgjsG4643" transform="translate(416, 416) scale(1.3)" fill="rgba(198, 215, 233, 1)"></use><use xlink:href="#SvgjsG4643" transform="translate(416, 499.20000000000005) scale(1.3)" fill="rgba(198, 215, 233, 1)"></use><use xlink:href="#SvgjsG4648" transform="translate(499.20000000000005, 0) scale(1.3)" fill="rgba(198, 215, 233, 1)"></use><use xlink:href="#SvgjsG4643" transform="translate(499.20000000000005, 83.2) scale(1.3)" fill="rgba(198, 215, 233, 1)"></use><use xlink:href="#SvgjsG4648" transform="translate(499.20000000000005, 166.4) scale(1.3)" fill="rgba(198, 215, 233, 1)"></use><use xlink:href="#SvgjsG4644" transform="translate(499.20000000000005, 249.60000000000002) scale(1.3)" fill="rgba(198, 215, 233, 1)"></use><use xlink:href="#SvgjsG4643" transform="translate(499.20000000000005, 332.8) scale(1.3)" fill="rgba(198, 215, 233, 1)"></use><use xlink:href="#SvgjsG4647" transform="translate(499.20000000000005, 416) scale(1.3)" fill="rgba(198, 215, 233, 1)"></use><use xlink:href="#SvgjsG4647" transform="translate(499.20000000000005, 499.20000000000005) scale(1.3)" fill="rgba(198, 215, 233, 1)"></use><use xlink:href="#SvgjsG4642" transform="translate(582.4, 0) scale(1.3)" fill="rgba(198, 215, 233, 1)"></use><use xlink:href="#SvgjsG4641" transform="translate(582.4, 83.2) scale(1.3)" fill="rgba(198, 215, 233, 1)"></use><use xlink:href="#SvgjsG4644" transform="translate(582.4, 166.4) scale(1.3)" fill="rgba(198, 215, 233, 1)"></use><use xlink:href="#SvgjsG4645" transform="translate(582.4, 249.60000000000002) scale(1.3)" fill="rgba(198, 215, 233, 1)"></use><use xlink:href="#SvgjsG4642" transform="translate(582.4, 332.8) scale(1.3)" fill="rgba(198, 215, 233, 1)"></use><use xlink:href="#SvgjsG4642" transform="translate(582.4, 416) scale(1.3)" fill="rgba(198, 215, 233, 1)"></use><use xlink:href="#SvgjsG4645" transform="translate(582.4, 499.20000000000005) scale(1.3)" fill="rgba(198, 215, 233, 1)"></use><use xlink:href="#SvgjsG4649" transform="translate(665.6, 0) scale(1.3)" fill="rgba(198, 215, 233, 1)"></use><use xlink:href="#SvgjsG4647" transform="translate(665.6, 83.2) scale(1.3)" fill="rgba(198, 215, 233, 1)"></use><use xlink:href="#SvgjsG4646" transform="translate(665.6, 166.4) scale(1.3)" fill="rgba(198, 215, 233, 1)"></use><use xlink:href="#SvgjsG4646" transform="translate(665.6, 249.60000000000002) scale(1.3)" fill="rgba(198, 215, 233, 1)"></use><use xlink:href="#SvgjsG4649" transform="translate(665.6, 332.8) scale(1.3)" fill="rgba(198, 215, 233, 1)"></use><use xlink:href="#SvgjsG4647" transform="translate(665.6, 416) scale(1.3)" fill="rgba(198, 215, 233, 1)"></use><use xlink:href="#SvgjsG4644" transform="translate(665.6, 499.20000000000005) scale(1.3)" fill="rgba(198, 215, 233, 1)"></use><use xlink:href="#SvgjsG4646" transform="translate(748.8000000000001, 0) scale(1.3)" fill="rgba(198, 215, 233, 1)"></use><use xlink:href="#SvgjsG4641" transform="translate(748.8000000000001, 83.2) scale(1.3)" fill="rgba(198, 215, 233, 1)"></use><use xlink:href="#SvgjsG4643" transform="translate(748.8000000000001, 166.4) scale(1.3)" fill="rgba(198, 215, 233, 1)"></use><use xlink:href="#SvgjsG4646" transform="translate(748.8000000000001, 249.60000000000002) scale(1.3)" fill="rgba(198, 215, 233, 1)"></use><use xlink:href="#SvgjsG4645" transform="translate(748.8000000000001, 332.8) scale(1.3)" fill="rgba(198, 215, 233, 1)"></use><use xlink:href="#SvgjsG4642" transform="translate(748.8000000000001, 416) scale(1.3)" fill="rgba(198, 215, 233, 1)"></use><use xlink:href="#SvgjsG4648" transform="translate(748.8000000000001, 499.20000000000005) scale(1.3)" fill="rgba(198, 215, 233, 1)"></use></g></defs></svg>